# xmcd
#
# Track frame offsets:
#	150
#	14774
#	28550
#	42891
#	56701
#	66772
#	79716
#	93660
#	108161
#	122524
#	138143
#	150722
#	164866
#	175795
#	190264
#	203278
#	217353
#	230201
#	244389
#	257704
#
# Disc length: 3600 seconds
#
# Revision: 0
# Processed by: cddbd v1.5.1PL0 Copyright (c) Steve Scherf et al.
# Submitted via: EasyCDDAExtractor 7.1.2.1
#
DISCID=200e0e14
DTITLE=Mel Street - 20 Greatest Hit
DYEAR=1900
DGENRE=Country
TTITLE0=Borrowed Angel
TTITLE1=Smokey Mountain Memories
TTITLE2=You Make Me Feel More Like A Man
TTITLE3=Bad, Bad Leroy Brown
TTITLE4=Even The Bad Times Are Good
TTITLE5=Lovin' On Back Streets
TTITLE6=Forbidden Angel
TTITLE7=I Met A Friend Of Yours Today
TTITLE8=The One Thing My Lady Never Puts Into Words
TTITLE9=Looking Out My Window Through The Pain
TTITLE10=Town Where You Live
TTITLE11=Lovin' On Borrowed Time
TTITLE12=Am I That Easy To Forget
TTITLE13=Walk Softly On The Bridges
TTITLE14=Even If I Have To Steal
TTITLE15=Rodeo Bum
TTITLE16=Who'll Turn Out The Lights (In Your World Tonight)?
TTITLE17=Don't Be Angry
TTITLE18=(This Ain't Just Another) Lust Affair
TTITLE19=The Devil In Your Kisses And The Angel In Your Eyes
EXTD=
EXTT0=
EXTT1=
EXTT2=
EXTT3=
EXTT4=
EXTT5=
EXTT6=
EXTT7=
EXTT8=
EXTT9=
EXTT10=
EXTT11=
EXTT12=
EXTT13=
EXTT14=
EXTT15=
EXTT16=
EXTT17=
EXTT18=
EXTT19=
PLAYORDER=
